<?xml version="1.0" encoding="utf-8"?>
<!-- Generator: Adobe Illustrator 24.0.2, SVG Export Plug-In . SVG Version: 6.00 Build 0)  -->
<svg version="1.0" id="Layer_1" xmlns="http://www.w3.org/2000/svg" xmlns:xlink="http://www.w3.org/1999/xlink" x="0px" y="0px"
	 viewBox="0 0 300 280" enable-background="new 0 0 300 280" xml:space="preserve">
<g>
	<path fill-rule="evenodd" clip-rule="evenodd" fill="#D62B2A" d="M53.64,90.45c4.51-9.91,10.88-18.57,18.35-26.39
		c16.9-17.71,37.36-29.06,61.59-32.93c33.9-5.42,64.25,2.58,90.47,25.16c1.66,1.43,2.07,2.26,0.26,4.02
		c-9.26,9.06-18.36,18.28-27.53,27.43c-0.94,0.94-1.57,2.09-3.24,0.56c-23.09-21.15-60.77-20.91-85.3,1.9
		c-8.42,7.83-14.41,17.22-18.33,27.98c-0.57-0.37-1.17-0.71-1.71-1.12C76.67,108.2,65.15,99.32,53.64,90.45z"/>
	<path fill-rule="evenodd" clip-rule="evenodd" fill="#47AC48" d="M89.63,161.39c3.31,8.4,7.42,16.35,13.53,23.1
		c15.54,17.16,34.81,24.57,57.89,22.17c10.72-1.11,20.5-4.75,29.62-10.33c0.88,0.78,1.71,1.62,2.63,2.34
		c10.68,8.34,21.38,16.67,32.08,25c-11.79,11.2-25.72,18.66-41.38,22.62c-36.93,9.33-70.97,3.43-101.2-20.42
		c-12.5-9.86-22.33-22.04-29.26-36.46C65.58,180.06,77.6,170.72,89.63,161.39z"/>
	<path fill-rule="evenodd" clip-rule="evenodd" fill="#5D80C0" d="M225.39,223.67c-10.69-8.33-21.39-16.65-32.08-25
		c-0.92-0.72-1.76-1.56-2.63-2.34c7.24-5.53,13.28-12.06,17.25-20.37c1.58-3.31,2.69-6.78,3.75-10.28c0.72-2.42,0.5-3.36-2.49-3.33
		c-17.8,0.15-35.6,0.08-53.4,0.07c-3.77,0-3.77,0-3.77-3.9c0-12.06,0.06-24.13-0.05-36.19c-0.02-2.33,0.39-3.22,3.01-3.21
		c32.83,0.1,65.66,0.07,98.5,0.03c1.77,0,2.89,0.13,3.19,2.28c4.09,28.71,0.81,56.15-14.22,81.49
		C237.83,210.69,232.31,217.77,225.39,223.67z"/>
	<path fill-rule="evenodd" clip-rule="evenodd" fill="#F3C317" d="M89.63,161.39c-12.03,9.34-24.05,18.68-36.08,28.01
		c-5.87-10.92-9.26-22.65-10.84-34.87c-2.74-21.17,0.27-41.54,9.25-60.97c0.49-1.07,1.12-2.07,1.68-3.11
		c11.52,8.87,23.03,17.74,34.55,26.61c0.54,0.42,1.14,0.75,1.71,1.12C85.08,132.56,85.32,146.96,89.63,161.39z"/>
</g>
</svg>
